
        <svg xmlns="http://www.w3.org/2000/svg" xmlns:xlink="http://www.w3.org/1999/xlink" version="1.1" width="3160.377780517174" height="806.4186260899767" viewBox="-32.07555610343476 0 3160.377780517174 806.4186260899767">
			
			<g transform="scale(8.01888902585869) translate(10, 10)">
				<defs id="SvgjsDefs1021"/><g id="SvgjsG1022" featureKey="HKaMnE-0" transform="matrix(0.9259644261193484,0,0,0.9259644261193484,-5.870445253127118,-6.01647632397288)" fill="#fff"><title xmlns="http://www.w3.org/2000/svg">77 all</title><path xmlns="http://www.w3.org/2000/svg" d="M18.66,48.94,2.57,56.36a1,1,0,0,0-.27.19l-.06.07a1,1,0,0,0-.15.22l0,.09a1,1,0,0,0-.07.35V75.09a1,1,0,0,0,.58.91l16.08,7.41a1,1,0,0,0,.84,0l7.6-3.5L50.67,93.37a1,1,0,0,0,1,0l22.26-13,6.58,3a1,1,0,0,0,.84,0L97.43,76a1,1,0,0,0,.58-.91V57.27a1,1,0,0,0-.07-.35l0-.09a1,1,0,0,0-.15-.22l-.06-.07a1,1,0,0,0-.27-.19L81.34,48.94a1,1,0,0,0-.38-.08l0-12.24a1,1,0,0,0-.5-.86l-12.32-7V14.91a1,1,0,0,0-.07-.35l0-.09a1,1,0,0,0-.15-.22l-.06-.07a1,1,0,0,0-.27-.19L51.43,6.59a1,1,0,0,0-.84,0L34.51,14a1,1,0,0,0-.27.19l-.06.07a1,1,0,0,0-.15.22l0,.09a1,1,0,0,0-.07.35V28.75L21.44,36a1,1,0,0,0-.5.87l0,12.73-1.5-.69A1,1,0,0,0,18.66,48.94Zm.42,2,13.7,6.31-13.7,6.31L5.38,57.27Zm8,26.66-.06.11-7,3.21V65.32l14.08-6.49V74.45l-7,3.21ZM4,58.83l14.08,6.49V80.94L4,74.45Zm61.85,0,14.08,6.49V80.94L65.84,74.45ZM81.93,80.94V65.32L96,58.83V74.45Zm12.7-23.67-13.7,6.31-13.7-6.31L80.93,51ZM35.93,16.47,50,23V38.59L35.93,32.09ZM52,23l14.08-6.49V32.09L52,38.59ZM51,8.6l13.7,6.31L51,21.22l-13.7-6.31ZM22.95,37.47l11-6.41v1.67a1,1,0,0,0,.58.91l16.08,7.41a1,1,0,0,0,.84,0l16.08-7.41a1,1,0,0,0,.58-.91V31l10.83,6.18,0,12.44L64.42,56.36a1,1,0,0,0-.27.19l-.06.07a1,1,0,0,0-.15.22l0,.09a1,1,0,0,0-.07.35V75.09a1,1,0,0,0,.58.91l7.29,3.36-20.55,12L29.33,78.88,35.58,76a1,1,0,0,0,.58-.91V57.27a1,1,0,0,0-.07-.35l0-.09a1,1,0,0,0-.15-.22l-.06-.07a1,1,0,0,0-.27-.19L22.86,50.5H23Z"/></g><g id="SvgjsG1023" featureKey="J3GnXt-0" transform="matrix(1.81836108278124,0,0,1.81836108278124,106.90888458138915,20.52633868934477)" fill="#fff"><path d="M12 6 c0.18 0 0.3 0.12 0.3 0.3 l0 7.96 c0 4.29 -2.32 6.03 -5.55 6.03 c-3.2 0 -5.49 -1.67 -5.6 -5.73 c0 -0.2 0.12 -0.3 0.3 -0.3 l2.56 0 c0.18 0 0.3 0.1 0.3 0.3 c0.09 2.09 1.08 2.62 2.44 2.62 c1.33 0 2.32 -0.56 2.32 -2.92 l0 -5.42 l-5.5 0 c-0.18 0 -0.3 -0.12 -0.3 -0.3 l0 -2.24 c0 -0.18 0.12 -0.3 0.3 -0.3 l8.43 0 z M20.15 20.26 c-2.85 0 -5.15 -2.26 -5.15 -5.14 c0 -2.87 2.3 -5.14 5.15 -5.14 c2.84 0 5.14 2.27 5.14 5.14 c0 2.88 -2.3 5.14 -5.14 5.14 z M20.15 17.37 c1.24 0 2.14 -1 2.14 -2.25 c0 -1.24 -0.9 -2.26 -2.14 -2.26 c-1.25 0 -2.15 1.02 -2.15 2.26 c0 1.25 0.9 2.25 2.15 2.25 z M37.85 15 c0 0.84 -0.11 1.27 -0.74 1.27 l-6.31 0 c0.27 1 1.29 1.5 2.7 1.5 c0.82 0 1.39 -0.11 2.08 -0.53 c0.2 -0.12 0.32 -0.09 0.45 0.04 l1.05 1.05 c0.13 0.13 0.12 0.27 -0.04 0.43 c-0.93 0.93 -2.2 1.5 -3.83 1.5 c-3.26 0 -5.42 -2.26 -5.42 -5.14 s2.16 -5.14 5.18 -5.14 c3.03 0 4.88 2.25 4.88 5.02 z M32.99 12.6 c-1.06 0 -1.89 0.51 -2.13 1.61 l4.22 0 c-0.22 -1.1 -1.02 -1.61 -2.09 -1.61 z M58.62 6 c0.18 0 0.3 0.12 0.3 0.3 l0 2.24 c0 0.18 -0.12 0.3 -0.3 0.3 l-3.62 0 l0 10.86 c0 0.18 -0.12 0.3 -0.3 0.3 l-2.63 0 c-0.18 0 -0.3 -0.12 -0.3 -0.3 l0 -10.86 l-3.62 0 c-0.18 0 -0.3 -0.12 -0.3 -0.3 l0 -2.24 c0 -0.18 0.12 -0.3 0.3 -0.3 l10.47 0 z M71.17999999999999 15 c0 0.84 -0.11 1.27 -0.74 1.27 l-6.31 0 c0.27 1 1.29 1.5 2.7 1.5 c0.82 0 1.39 -0.11 2.08 -0.53 c0.2 -0.12 0.32 -0.09 0.45 0.04 l1.05 1.05 c0.13 0.13 0.12 0.27 -0.04 0.43 c-0.93 0.93 -2.2 1.5 -3.83 1.5 c-3.26 0 -5.42 -2.26 -5.42 -5.14 s2.16 -5.14 5.18 -5.14 c3.03 0 4.88 2.25 4.88 5.02 z M66.32 12.6 c-1.06 0 -1.89 0.51 -2.13 1.61 l4.22 0 c-0.22 -1.1 -1.02 -1.61 -2.09 -1.61 z M80.5 9.98 c2.05 0 3.69 1.56 3.69 4.15 c0 0.17 -0.09 0.28 -0.27 0.32 l-2.52 0.39 c-0.2 0.04 -0.33 -0.08 -0.35 -0.28 c-0.17 -1.28 -0.99 -1.66 -1.87 -1.66 c-1.46 0 -2.03 1.21 -2.03 1.62 l0 5.18 c0 0.18 -0.12 0.3 -0.3 0.3 l-2.52 0 c-0.18 0 -0.3 -0.12 -0.3 -0.3 l0 -9.2 c0 -0.18 0.12 -0.3 0.3 -0.3 l2.44 0 c0.18 0 0.28 0.12 0.3 0.3 l0.08 1.24 l0.22 0 c0.64 -0.93 1.64 -1.76 3.13 -1.76 z M95.75999999999999 17.5 c0.18 0 0.3 0.12 0.3 0.3 l0 1.9 c0 0.18 -0.12 0.3 -0.3 0.3 l-8.87 0 c-0.18 0 -0.3 -0.12 -0.3 -0.3 l0 -1.9 c0 -0.18 0.12 -0.3 0.3 -0.3 l3.09 0 l0 -9 l-2.81 0 c-0.18 0 -0.3 -0.12 -0.3 -0.3 l0 -1.9 c0 -0.18 0.12 -0.3 0.3 -0.3 l5.63 0 c0.18 0 0.3 0.12 0.3 0.3 l0 11.2 l2.66 0 z M108.47 15 c0 0.84 -0.11 1.27 -0.74 1.27 l-6.31 0 c0.27 1 1.29 1.5 2.7 1.5 c0.82 0 1.39 -0.11 2.08 -0.53 c0.2 -0.12 0.32 -0.09 0.45 0.04 l1.05 1.05 c0.13 0.13 0.12 0.27 -0.04 0.43 c-0.93 0.93 -2.2 1.5 -3.83 1.5 c-3.26 0 -5.42 -2.26 -5.42 -5.14 s2.16 -5.14 5.18 -5.14 c3.03 0 4.88 2.25 4.88 5.02 z M103.61 12.6 c-1.06 0 -1.89 0.51 -2.13 1.61 l4.22 0 c-0.22 -1.1 -1.02 -1.61 -2.09 -1.61 z M116.31 17.37 c0.74 0 1.39 -0.29 1.8 -0.78 c0.12 -0.13 0.24 -0.18 0.4 -0.08 l1.87 1.04 c0.16 0.1 0.22 0.24 0.1 0.4 c-0.82 1.32 -2.38 2.31 -4.24 2.31 c-3.02 0 -5.27 -2.25 -5.27 -5.14 s2.25 -5.14 5.27 -5.14 c1.86 0 3.42 0.99 4.24 2.31 c0.12 0.16 0.06 0.3 -0.1 0.4 l-1.87 1.04 c-0.16 0.1 -0.28 0.05 -0.4 -0.08 c-0.41 -0.49 -1.06 -0.79 -1.8 -0.79 c-1.31 0 -2.35 0.93 -2.35 2.26 s1.04 2.25 2.35 2.25 z M133.3 19.64 c0.16 0.2 0.06 0.36 -0.18 0.36 l-2.73 0 c-0.16 0 -0.27 -0.04 -0.36 -0.18 l-2.74 -3.43 l-0.87 0.95 l0 2.36 c0 0.18 -0.12 0.3 -0.3 0.3 l-2.52 0 c-0.18 0 -0.3 -0.12 -0.3 -0.3 l0 -14 c0 -0.18 0.12 -0.3 0.3 -0.3 l2.52 0 c0.18 0 0.3 0.12 0.3 0.3 l0 7.84 l2.85 -3.18 c0.1 -0.12 0.22 -0.16 0.36 -0.16 l2.92 0 c0.26 0 0.34 0.19 0.16 0.36 l-3.54 3.82 z M140.35999999999999 8.53 c-0.92 0 -1.67 -0.74 -1.67 -1.66 s0.75 -1.66 1.67 -1.66 c0.91 0 1.66 0.74 1.66 1.66 s-0.75 1.66 -1.66 1.66 z M144.45 17.5 c0.18 0 0.3 0.12 0.3 0.3 l0 1.9 c0 0.18 -0.12 0.3 -0.3 0.3 l-8.77 0 c-0.18 0 -0.3 -0.12 -0.3 -0.3 l0 -1.9 c0 -0.18 0.12 -0.3 0.3 -0.3 l3.09 0 l0 -4.8 l-2.59 0 c-0.18 0 -0.3 -0.12 -0.3 -0.3 l0 -1.9 c0 -0.18 0.12 -0.3 0.3 -0.3 l5.41 0 c0.18 0 0.3 0.12 0.3 0.3 l0 7 l2.56 0 z"/></g>
			</g>
		</svg>
	